<svg xmlns="http://www.w3.org/2000/svg" viewBox="0 0 80 80"><defs><style>.cls-1{fill:#1f3c88;}.cls-2{fill:none;}</style></defs><title>Asset 6</title><g id="Layer_2" data-name="Layer 2"><g id="Layer_1-2" data-name="Layer 1"><path class="cls-1" d="M38.94,67.16a52,52,0,0,0-27.61-1c-1.28.31-2.58.69-3.89,1.13a2.42,2.42,0,0,1-.63-1.63,2.32,2.32,0,0,1,0-.46L6.91,65a2.35,2.35,0,0,1,1.51-1.54h0C12.77,62,27.68,58,38.94,67.16Z"/><path class="cls-1" d="M38.52,66.05a34.61,34.61,0,0,0-23.23-5.88,32.33,32.33,0,0,0-4.81.89A2.6,2.6,0,0,1,10,59.58a2.45,2.45,0,0,1,.26-1.11l.11-.2A2.64,2.64,0,0,1,12.09,57l.34,0a31.6,31.6,0,0,1,4.4-.41h1.09A26.77,26.77,0,0,1,38.52,66.05Z"/><path class="cls-1" d="M38.52,65C33.92,57.85,25.2,56,19.29,55.59c-1.51-.1-2.83-.1-3.86-.07h0a2.44,2.44,0,0,1,.12-2.64.52.52,0,0,1,.1-.11.13.13,0,0,1,.06-.07l.1-.12a2.26,2.26,0,0,1,1.55-.65h.27C34.47,52.52,38.52,65,38.52,65Z"/><path class="cls-1" d="M41.06,67.16a52,52,0,0,1,27.61-1c1.28.31,2.58.69,3.89,1.13a2.42,2.42,0,0,0,.63-1.63,2.32,2.32,0,0,0,0-.46L73.09,65a2.35,2.35,0,0,0-1.51-1.54h0C67.23,62,52.32,58,41.06,67.16Z"/><path class="cls-1" d="M41.48,66.05a34.61,34.61,0,0,1,23.23-5.88,32.33,32.33,0,0,1,4.81.89A2.6,2.6,0,0,0,70,59.58a2.45,2.45,0,0,0-.26-1.11l-.11-.2A2.64,2.64,0,0,0,67.91,57l-.34,0a31.6,31.6,0,0,0-4.4-.41H62.08A26.77,26.77,0,0,0,41.48,66.05Z"/><path class="cls-1" d="M41.48,65c4.6-7.18,13.32-9.05,19.23-9.44,1.51-.1,2.83-.1,3.86-.07h0a2.44,2.44,0,0,0-.12-2.64.52.52,0,0,0-.1-.11.13.13,0,0,0-.06-.07l-.1-.12a2.26,2.26,0,0,0-1.55-.65h-.27C45.53,52.52,41.48,65,41.48,65Z"/><rect class="cls-2" width="80" height="80"/><path class="cls-1" d="M54.38,42a7.13,7.13,0,0,1-7.13,7.12H30V23.69a7.13,7.13,0,0,1,7.12-7.13,6.81,6.81,0,0,1,1,.07V41H54.3A6.8,6.8,0,0,1,54.38,42Z"/></g></g></svg>